<?xml version="1.0" encoding="utf-8"?>
<!-- Generator: Adobe Illustrator 15.0.0, SVG Export Plug-In . SVG Version: 6.00 Build 0)  -->
<!DOCTYPE svg PUBLIC "-//W3C//DTD SVG 1.1//EN" "http://www.w3.org/Graphics/SVG/1.1/DTD/svg11.dtd">
<svg version="1.1" id="Layer_1" xmlns="http://www.w3.org/2000/svg" xmlns:xlink="http://www.w3.org/1999/xlink" x="0px" y="0px"
	 width="226.771px" height="171.489px" viewBox="0 0 226.771 171.489" enable-background="new 0 0 226.771 171.489"
	 xml:space="preserve">
<g>
	<defs>
		<rect id="SVGID_1_" x="56.525" y="28.087" width="113.553" height="252.542"/>
	</defs>
	<clipPath id="SVGID_2_">
		<use xlink:href="#SVGID_1_"  overflow="visible"/>
	</clipPath>
	<path clip-path="url(#SVGID_2_)" fill="#FFFFFF" d="M169.338,28.087c-0.41,0-0.742,0.332-0.742,0.742v111.327h-4.254
		L142.047,28.684c-0.068-0.346-0.371-0.596-0.725-0.596h-5.605c-0.352,0-0.656,0.25-0.725,0.596l-22.297,111.472h-4.254V28.829
		c0-0.41-0.332-0.742-0.742-0.742H57.268c-0.41,0-0.742,0.332-0.742,0.742v112.067c0,0.41,0.332,0.742,0.742,0.742h50.422
		c0.004,0,0.006,0.002,0.01,0.002h5.604c0.354,0,0.658-0.251,0.729-0.596L136.326,29.57h4.387l22.293,111.474
		c0.07,0.345,0.375,0.596,0.727,0.596h5.605c0.41,0,0.74-0.333,0.74-0.743V28.829C170.078,28.419,169.748,28.087,169.338,28.087"/>
</g>
</svg>
